<svg xmlns="http://www.w3.org/2000/svg" xmlns:xlink="http://www.w3.org/1999/xlink" viewBox="0 0 136 24.41"><defs><style>.cls-1{fill:none;}.cls-2{fill:#fff;}.cls-3{fill:#0545b1;}.cls-4{clip-path:url(#clip-path);}.cls-5{fill:#00bbed;}.cls-6{fill:#1ac62f;}.cls-7{fill:#f2338a;}.cls-8{fill:#1a1919;}</style><clipPath id="clip-path"><path class="cls-1" d="M116.3,20.24a32,32,0,0,1-.64-6.4,29.51,29.51,0,0,1,.39-5,6.22,6.22,0,0,1,.21-.81,3.23,3.23,0,0,1,1.86-2,8.6,8.6,0,0,1,1.44-.49,24.66,24.66,0,0,1,5.61-.69h.13a23,23,0,0,1,5.54.7,14.56,14.56,0,0,1,1.5.49,3.4,3.4,0,0,1,1.88,2,6.44,6.44,0,0,1,.19.77,33.6,33.6,0,0,1,.4,5,31.73,31.73,0,0,1-.65,6.43h0a2.94,2.94,0,0,1-2.24,2.27l-.11,0a33.83,33.83,0,0,1-6.58.64,33.68,33.68,0,0,1-6.55-.64l-.15,0a2.89,2.89,0,0,1-1.68-1.08A2.57,2.57,0,0,1,116.3,20.24Z"/></clipPath></defs><title>Asset 6</title><g id="Layer_2" data-name="Layer 2"><g id="BI_dark"><g id="ati"><path class="cls-2" d="M136,12.23c-.06-1.07-.17-2.19-.33-3.32l0-.28a7.08,7.08,0,0,0-.22-.93A4.58,4.58,0,0,0,132.82,5a14.72,14.72,0,0,0-1.69-.56c-.56-.14-1.12-.25-1.68-.35l1-.45a1.87,1.87,0,0,0,1.08-1A1.91,1.91,0,0,0,131.45,1a1.86,1.86,0,0,0-1.67-1,2,2,0,0,0-1,.25l-3.56,2.29-1.77-1.43a1.86,1.86,0,0,0-1.23-.46,1.86,1.86,0,0,0-1.84,2.24A1.78,1.78,0,0,0,121.16,4c-.62.1-1.27.23-1.91.4a9.31,9.31,0,0,0-1.64.56,4.49,4.49,0,0,0-2.34,2.3c0,.1-.1.23-.15.38a8.77,8.77,0,0,0-.25,1,30.7,30.7,0,0,0-.4,5.2,33.16,33.16,0,0,0,.66,6.64,3.91,3.91,0,0,0,.79,1.74,4.14,4.14,0,0,0,2.38,1.49l.15,0a35,35,0,0,0,6.78.67,35.12,35.12,0,0,0,6.85-.68l.09,0a4.13,4.13,0,0,0,3.16-3.21,32.85,32.85,0,0,0,.67-6.66C136,13.33,136,12.8,136,12.23Z"/><path class="cls-3" d="M130.38,1.56a.69.69,0,0,1-.4,1l-4.13,1.87a1.35,1.35,0,0,1-1.28,0L121.9,3.1a.69.69,0,0,1-.18-1h0a.68.68,0,0,1,1-.08l2.06,1.66a.73.73,0,0,0,.64.15.83.83,0,0,0,.24-.11l3.77-2.42a.69.69,0,0,1,1,.27Z"/><g class="cls-4"><path class="cls-3" d="M135.66,9.21c-.29-2.17-.79-3.4-3.61-4a31.1,31.1,0,0,0-5.9-.76h-1a31,31,0,0,0-5.9.76c-2.82.64-3.32,1.87-3.61,4a39.46,39.46,0,0,0-.27,4.78,39.46,39.46,0,0,0,.27,4.78c.29,2.16.79,3.4,3.61,4a28.75,28.75,0,0,0,5.9.61h1a28.82,28.82,0,0,0,5.9-.61c2.82-.64,3.32-1.88,3.61-4a39.46,39.46,0,0,0,.27-4.78A39.46,39.46,0,0,0,135.66,9.21Z"/><path class="cls-5" d="M128.52,11.06c0-.75,0-1.49,0-2.23a1.63,1.63,0,0,1,.74-1.41,1.85,1.85,0,0,1,1.7-.1c.88.38,2,1,2,1,.66.35,1.2.64,1.89,1.07h0l.11.06a1.66,1.66,0,0,1,.59,2.17,1.74,1.74,0,0,1-.54.6h0c-.64.43-1.19.85-1.85,1.26a16.15,16.15,0,0,1-1.73,1,2.08,2.08,0,0,1-1.84.11,1.76,1.76,0,0,1-.9-1.43S128.57,12.29,128.52,11.06Z"/><path class="cls-2" d="M129.66,17c-2.14,2-6.78,2-8.87,0a.42.42,0,0,0-.58.61c2.41,2.29,7.56,2.3,10,0a.42.42,0,1,0-.57-.61Z"/><path class="cls-6" d="M128,13.67v-.14l-.29-3.16v-.09a1.18,1.18,0,0,0,0-.2,1.62,1.62,0,0,0-1.29-1.21,2.4,2.4,0,0,0-.28,0h-1.62l-.23,0a1.65,1.65,0,0,0-1.34,1.22l0,.16v.17l-.29,3.13v.19a1.63,1.63,0,0,0,1.21,1.58,1.84,1.84,0,0,0,.41,0h2.2l.27,0A1.63,1.63,0,0,0,128,13.73Z"/><path class="cls-7" d="M121.86,11.93a3.89,3.89,0,0,1-4.56,2.79c-2.14-.37-3.68-3.4-2.62-5.26a4.38,4.38,0,0,1,5-2.15C121.87,8,122.49,9.83,121.86,11.93Z"/><circle class="cls-8" cx="131.52" cy="10.94" r="1.37"/><circle class="cls-8" cx="118.74" cy="10.94" r="1.37"/></g></g><g id="afreecatv"><path id="a" class="cls-2" d="M12.39,11.16v8.4A2.7,2.7,0,0,1,9.52,22H4.73C0,22,0,18.2,0,18.2V16.32s.3-3.44,4.73-3.42h2V11.17s0-.88-1.11-.88H3.07c-.94,0-1.86-.56-1.86-1.35A1.79,1.79,0,0,1,3,7.38H7.87C12.39,7.4,12.39,11.16,12.39,11.16Zm-7.89,8H6.74V15.77H4.5c-1.27,0-1.11,1.68-1.11,1.68S3.26,19.12,4.5,19.12Z"/><path id="f" class="cls-2" d="M14.26,5.77s-.06-3.94,4.46-4H23A1.57,1.57,0,0,1,24.62,3.2,1.58,1.58,0,0,1,23,4.63H21c-1.3,0-1.19.94-1.19.94V7.41h2.37a1.56,1.56,0,0,1,1.7,1.37,1.46,1.46,0,0,1-1.58,1.4H19.8v9.34A2.59,2.59,0,0,1,17.09,22a2.63,2.63,0,0,1-2.83-2.4Z"/><path id="r" class="cls-2" d="M30,19.5A2.55,2.55,0,0,1,27.26,22a2.66,2.66,0,0,1-2.84-2.4V11.19s0-3.71,4.59-3.71h3.64c1.9,0,1.9,1.46,1.9,1.46s0,1.4-1.78,1.4H31.16c-1.18,0-1.18.92-1.18.92Z"/><path id="e" class="cls-2" d="M42.75,7.38c4.74,0,4.74,3.81,4.74,3.81v4a1.55,1.55,0,0,1-1.71,1.37H40.55V18.2s.06.89,1.26.89h2.94a1.55,1.55,0,0,1,1.68,1.42A1.63,1.63,0,0,1,44.75,22H39.59c-4.52,0-4.52-3.76-4.52-3.76V11.19s0-3.77,4.56-3.81Zm-.91,3c-1.23,0-1.23.89-1.23.89v2.46h3.5V11.32a1,1,0,0,0-1.11-1Z"/><path id="e-2" data-name="e" class="cls-2" d="M57,7.38c4.75,0,4.75,3.81,4.75,3.81v4A1.55,1.55,0,0,1,60,16.51H54.77V18.2s0,.89,1.26.89H59a1.56,1.56,0,0,1,1.69,1.42A1.63,1.63,0,0,1,59,22H53.81c-4.52,0-4.52-3.76-4.52-3.76V11.19s0-3.77,4.56-3.81Zm-.91,3c-1.23,0-1.23.89-1.23.89v2.46h3.5V11.32a1,1,0,0,0-1.11-1Z"/><path id="c" class="cls-2" d="M73.59,19.17a1.7,1.7,0,0,1,1.78,1.5c0,.8-.84,1.34-1.78,1.34H66.2a2.4,2.4,0,0,1-2.67-2.28v-10a2.66,2.66,0,0,1,2.84-2.4h7.51A1.55,1.55,0,0,1,75.56,8.8a1.53,1.53,0,0,1-1.68,1.38h-4a.61.61,0,0,0-.69.58v7.8s-.05.61.69.61Z"/><path id="a-2" data-name="a" class="cls-2" d="M88.22,11.16v8.4A2.7,2.7,0,0,1,85.35,22h-4.8c-4.72,0-4.72-3.81-4.72-3.81V16.32s.3-3.44,4.72-3.42h2V11.18s0-.89-1.11-.89H78.9c-.94,0-1.85-.55-1.85-1.34a1.77,1.77,0,0,1,1.8-1.56H83.7C88.22,7.41,88.22,11.16,88.22,11.16Zm-7.89,8h2.24V15.77H80.33c-1.23,0-1.11,1.67-1.11,1.67S79.09,19.12,80.33,19.12Z"/><path id="t" class="cls-2" d="M101.41,3.7s0-1.29-1.7-1.29H87.9c-1.7,0-1.7,1.25-1.7,1.25s0,1.23,1.6,1.23h2.46c1.07,0,1.07.81,1.07.81v7.61a2.25,2.25,0,0,0,2.42,2.2,2.37,2.37,0,0,0,2.54-2.11V5.69c0-.18.15-.76,1.06-.76h2.46C101.41,4.93,101.41,3.7,101.41,3.7Z"/><path id="v" class="cls-2" d="M111.78,2.83a2.55,2.55,0,0,0-3.49.87l-4.48,6L102.2,6.22a2,2,0,0,0-2.26-.64,1.6,1.6,0,0,0-.8,1.94l3,6.78a2.2,2.2,0,0,0,1.58,1.1,2.92,2.92,0,0,0,3-1.24l5.66-7.76A2.55,2.55,0,0,0,111.78,2.83Z"/></g></g></g></svg>